/* XPM */
/* $Id: jc.xpm,v 1.1 2005/01/07 19:13:23 archiecobbs Exp $ */
static char *noname[] = {
/* width height ncolors chars_per_pixel */
"60 60 317 2",
/* colors */
"   c #000000",
" . c #E3E3EC",
" X c #F3F3FF",
" o c #E1E1EA",
" O c #F1F1FD",
" + c #DFDFE8",
" @ c #ADADAD",
" # c #EFEFFB",
" $ c #DDDDE6",
" % c #EDEDF9",
" & c #DBDBE4",
" * c #E7E7F3",
" = c #FAFAFF",
" - c #E5E5F1",
" ; c #E8E8EA",
" : c #F8F8FD",
" > c #E3E3EF",
" , c #9F9F9F",
" < c #E1E1ED",
" 1 c #F4F4F9",
" 2 c #9D9D9D",
" 3 c #E2E2E4",
" 4 c #EFEFFE",
" 5 c #EDEDFC",
" 6 c #EBEBFA",
" 7 c #EEEEF3",
" 8 c #E9E9F8",
" 9 c #F6F6FE",
" 0 c #8D8D8D",
" q c #F4F4FC",
" w c #D2D2D4",
" e c #F2F2FA",
" r c #D0D0D2",
" t c #CECED0",
" y c #EEEEF6",
" u c #858585",
" i c #D8D8DD",
" p c #818181",
" a c #E8E8F0",
" s c #D6D6DB",
" d c #7F7F7F",
" f c #E6E6EE",
" g c #D4D4D9",
" h c #E4E4EC",
" j c #F4F4FF",
" k c #D2D2D7",
" l c #F2F2FD",
" z c #E0E0E8",
" x c #F0F0FB",
" c c #EEEEF9",
" v c #DCDCE4",
" b c #ECECF7",
" n c #DADAE2",
" m c #EAEAF5",
" M c #D8D8E0",
" N c #E8E8F3",
" B c #FBFBFF",
" V c #E6E6F1",
" C c #6D6D6D",
" Z c #F9F9FD",
" A c #E4E4EF",
" S c #6B6B6B",
" D c #F7F7FB",
" F c #E2E2ED",
" G c #696969",
" H c #E0E0EB",
" J c #F0F0FE",
" K c #DEDEE9",
" L c #EEEEFC",
" P c #F1F1F5",
" I c #ECECFA",
" U c #EAEAF8",
" Y c #E8E8F6",
" T c #E6E6F4",
" R c #E4E4F2",
" E c #F7F7FE",
" W c #F5F5FC",
" Q c #D1D1D2",
" ! c #F1F1F8",
" ~ c #CFCFD0",
" ^ c #EFEFF6",
" / c #CDCDCE",
" ( c #515151",
" ) c #E7E7EE",
" _ c #494949",
" ` c #D5D5D9",
" ' c #F5F5FF",
" ] c #D3D3D7",
" [ c #F3F3FD",
" { c #D1D1D5",
" } c #F1F1FB",
" | c #EFEFF9",
".  c #F2F2F2",
".. c #DDDDE4",
".X c #EDEDF7",
".o c #F0F0F0",
".O c #DBDBE2",
".+ c #EBEBF5",
".@ c #3D3D3D",
".# c #EEEEEE",
".$ c #D9D9E0",
".% c #E9E9F3",
".& c #FCFCFF",
".* c #D7D7DE",
".= c #E7E7F1",
".- c #393939",
".; c #FAFAFD",
".: c #E5E5EF",
".> c #373737",
"., c #E3E3ED",
".< c #E6E6E6",
".1 c #E1E1EB",
".2 c #E4E4E4",
".3 c #F1F1FE",
".4 c #DFDFE9",
".5 c #EFEFFC",
".6 c #DDDDE7",
".7 c #EDEDFA",
".8 c #DBDBE5",
".9 c #EBEBF8",
".0 c #2B2B2B",
".q c #E9E9F6",
".w c #E7E7F4",
".e c #EAEAED",
".r c #D8D8D8",
".t c #E5E5F2",
".y c #F8F8FE",
".u c #D6D6D6",
".i c #E3E3F0",
".p c #F6F6FC",
".a c #D2D2D2",
".s c #F2F2F8",
".d c #1F1F1F",
".f c #CECECE",
".g c #EBEBFB",
".h c #CCCCCC",
".j c #E9E9F9",
".k c #ECECF2",
".l c #CACACA",
".z c #C6C6C6",
".x c #F6F6FF",
".c c #D4D4D7",
".v c #F4F4FD",
".b c #D2D2D5",
".n c #F2F2FB",
".m c #D0D0D3",
".M c #F0F0F9",
".N c #CECED1",
".B c #EEEEF7",
".V c #090909",
".C c #ECECF5",
".Z c #DADAE0",
".A c #070707",
".S c #EAEAF3",
".D c #FDFDFF",
".F c #D8D8DE",
".G c #050505",
".H c #E8E8F1",
".J c #FBFBFD",
".K c #D6D6DC",
".L c #010101",
".P c #E4E4ED",
".I c #B2B2B2",
".U c #E2E2EB",
".Y c #F2F2FE",
".T c #E0E0E9",
".R c #F0F0FC",
".E c #DEDEE7",
".W c #EEEEFA",
".Q c #DCDCE5",
".! c #ECECF8",
".~ c #DADAE3",
".^ c #A8A8A8",
"./ c #EAEAF6",
".( c #E8E8F4",
".) c #6F6F70",
"._ c #A4A4A4",
".` c #E6E6F2",
".' c #E9E9EB",
".] c #F9F9FE",
".[ c #E4E4F0",
".{ c #F7F7FC",
".} c #E2E2EE",
".| c #F5F5FA",
"X  c #F3F3F8",
"X. c #9C9C9C",
"XX c #EEEEFD",
"Xo c #EAEAF9",
"XO c #E8E8F7",
"X+ c #F7F7FF",
"X@ c #F5F5FD",
"X# c #D3D3D5",
"X$ c #8C8C8C",
"X% c #F3F3FB",
"X& c #D1D1D3",
"X* c #CFCFD1",
"X= c #CDCDCF",
"X- c #EBEBF3",
"X; c #FEFEFF",
"X: c #E9E9F1",
"X> c #D7D7DC",
"X, c #D5D5DA",
"X< c #D3D3D8",
"X1 c #E3E3EB",
"X2 c #F1F1FC",
"X3 c #DFDFE7",
"X4 c #EFEFFA",
"X5 c #767676",
"X6 c #DDDDE5",
"X7 c #EDEDF8",
"X8 c #DBDBE3",
"X9 c #EBEBF6",
"X0 c #D9D9E1",
"Xq c #E9E9F4",
"Xw c #3B3B3C",
"Xe c #D7D7DF",
"Xr c #E7E7F2",
"Xt c #FAFAFE",
"Xy c #E5E5F0",
"Xu c #F8F8FC",
"Xi c #E3E3EE",
"Xp c #E1E1EC",
"Xa c #686868",
"Xs c #DFDFEA",
"Xd c #EFEFFD",
"Xf c #666666",
"Xg c #F2F2F6",
"Xh c #EDEDFB",
"Xj c #2D2D2E",
"Xk c #EBEBF9",
"Xl c #EEEEF2",
"Xz c #E9E9F7",
"Xx c #E7E7F5",
"Xc c #E5E5F3",
"Xv c #F8F8FF",
"Xb c #F6F6FD",
"Xn c #585858",
"Xm c #F4F4FB",
"XM c #565656",
"XN c #F2F2F9",
"XB c #D0D0D1",
"XV c #CECECF",
"XC c #CCCCCD",
"XZ c #505050",
"XA c #ECECF3",
"XS c #FFFFFF",
"XD c #FDFDFD",
"XF c #FBFBFB",
"XG c #D6D6DA",
"XH c #D4D4D8",
"XJ c #F4F4FE",
"XK c #D2D2D6",
"XL c #F2F2FC",
"XP c #444444",
"XI c #E0E0E7",
"XU c #F0F0FA",
"XY c #DEDEE5",
"XT c #EEEEF8",
"XR c #DCDCE3",
"XE c #ECECF6",
"XW c #DADAE1",
"XQ c #EDEDED",
"X! c #D8D8DF",
"X~ c #3A3A3A",
"X^ c #FBFBFE",
"X/ c #D6D6DD",
"X( c #E6E6F0",
"X) c #B4B4B5",
"X_ c #E9E9E9",
"X` c #F7F7FA",
"X' c #E2E2EC",
"X] c #E5E5E5",
"X[ c #F2F2FF",
"X{ c #E0E0EA",
"X} c #F0F0FD",
"X| c #DEDEE8",
"o  c #EEEEFB",
"o. c #DCDCE6",
"oX c #DFDFDF",
"oo c #ECECF9",
"oO c #E8E8F5",
"o+ c #D9D9D9",
"o@ c #E6E6F3",
"o# c #F9F9FF",
"o$ c #262626",
"o% c #E4E4F1",
"o& c #F7F7FD",
"o* c #F5F5FB",
"o= c #F3F3F9",
"o- c #D1D1D1",
"o; c #F1F1F7",
"o: c #EFEFF5",
"o> c #CDCDCD",
"o, c #EAEAFA",
"o< c #E8E8F8",
"o1 c #161616",
"o2 c #C7C7C7",
"o3 c #C5C5C5",
"o4 c #D5D5D8",
"o5 c #F5F5FE",
"o6 c #D3D3D6",
"o7 c #101010",
"o8 c #F3F3FC",
"o9 c #D1D1D4",
"o0 c #F1F1FA",
"oq c #0C0C0C",
"ow c #EFEFF8",
"oe c #080808",
"or c #EBEBF4",
"ot c #D9D9DF",
"oy c #FCFCFE",
"ou c #D7D7DD",
"oi c #E7E7F0",
"op c #D5D5DB",
"oa c #020202",
"os c #E5E5EE",
"od c None",
/* pixels */
"XSXSXSXSXSXSXSXSXSXSXSXSXSXSXSXSXSXSXSXSXSXSXSXSXSXSXSXSXSXSXSXSXSXSXSXSXSXSXSXSXSXSXSXSXSXSXSXSXSXSXSXSXSXSXSXSXSXSXSXS",
"XSXSXSXSXSXSXSXSXSXSXSXSXSXSXSXSXSXSXSXSXSXSXSXSXSXSXSXSXSXSXSXSXSXSXSXSXSXSXSXSXSXSXSXSXSXSXSXSXSXSXSXSXSXSXSXSXSXSXSXS",
"XSXSXSXSXSXSXSXSXSXSXSXSXSXSXSXSXSXSXSXSXSXSXSXSXSXSXSXSXSXSXSXSXSXSXSXSXSXSXSXSXSXSXSXSXSXSXSXSXSXSXSXSXSXSXSXSXSXSXSXS",
"XSXSXSXSXSXSXSXSXSXSXSXSXSXSXSXSXSXSXSXSXSXSXSXSXSXSXSXSXSXSXSXSXSXSXSXSXSXSXSXSXSXSXSXSXSXSXSXSXSXSXSXSXSXSXSXSXSXSXSXS",
"XSXSXSXSXSXSXSXSXSXSXSXSXSXSXSXSXSXSXSXSXSXSXSXSXSXSXSXSXSXSXSXSXSXSXSXSXSXSXSXSXSXSXSXSXSXSXSXSXSXSXSXSXSXSXSXSXSXSXSXS",
"XSXSXSXSXSXSXSXSXSXSXSXSXSXSXSXSXSXSXSXSXSXSXSXSXSXSXSXSXSXSXSXSXSXSXSXSXSXSXSXSXSXSXSXSXSX;XSXSXSXSXSXSXSXSXSXSXSXSXSXS",
"XSXSXSXSXSXSXSXSXSXSXSXSXSXSXSXSXSXSXSXSXSXSXSXSXSXSXSXSXSXSXSXSXSXSXSXSXSXSXSXSXSXSXSXSXSXSXSXSXSXSXSXSXSXSXSXSXSXSXSXS",
"XSXSXSXSXSXSXSXSXSXSXSXSXSXSXSXSXSXSXSXSXSXSXSXSXSXSXSXSXSXSXSXSXSXSXSXSXSXSXSXSXSXSXSXSXSXSXSXSX;XSXSXSXSXSXSXSXSXSXSXS",
"XSXSXSXSXSXSXSXSXSXSXSXSXSXSXSXSXSXSXSXSXSXSXSXSXSXSXSXSXSXSXSXSXSXSXSXSXSXSXSXSXSXSXSXSXSXSXSXSXS BXSXSXSXSXSXSXSXSXSXS",
"XSXSXSXSXSXSXSXSXSXSXSXSXSXSXSXSXSXSXSXSXSXSXSXSXSXSXSXSXSXSXSXSXSXSXSXSXSXSXSXSXSXSXSXSXSXSXSXSXSXS BXSXSXSXSXSXSXSXSXS",
"XSXSXSXSXSXSXSXSXSXSXSXSXSXSXSXSXSXSXSXSXSXSXSXSXSXSXSXSXSXSXSXSXSXSXSXSXSXSXSXSXSXSXSXSXSXSXSXSXSXSXSXvXSXSXSXSXSXSXSXS",
"XSXSXSXSXSXSXSXSXSXSXSXSXSXSXSXSXSXSXSXSXSXSXSXSXSXSXSXSXSXSXSXSXSXSXSXSXSXSXSXSXSXSXSXSXSXSXSXSXSXSX;X;.xXSXSXSXSXSXSXS",
"XSXSXSXSXSXSXSXSXSXSXSXSXSXSXSXSXSXSXSXSXSXSXSXSXSXSXSXSXSXSXSXSXSXSXSXSXSXSXSXSXSXSXSXSXSXSXSXSXSX;X;X;X^ 'XSXSXSXSXSXS",
"XSXSXSXSXSXSXSXSXSXSXSXSXSXSXSXSXSXSXSXSXSXSXSXSXSXSXSXSXSXSXSXSXSXSXSXSXSXSXSXSXSXSXSXSXSXSXSXSXSXS.D.&.&Xu.5XSXSXSXSXS",
"XSXSXSXSXSXSXSXSXSXSXSXSXSXSXSXSXSXSXSXSXSXSXSXSXSXSXSXSXSXSXSXSXSXSXSXSXSXSXSXSXSXSXSXSXSXSXSXSXSXSX; Bo#o#X%XSXSXSXSXS",
"XSXSXSXSXSXSXSXSXSXSXSXSXSXSXSXSXSXSXSXSXSXSXSXSXSXSXSXSXSXSXSXSXSXSXSXSXSXSXSXSXSXSXSXSXSXSXSXSXSXSX;.& =XvX@ bXSXSXSXS",
"XSXSXSXSXSXSXSXSXSXSXSXSXSXSXSXSXSXSXSXSXSXSXSXSXSXSXSXSXSXSXSXSXSXSXSXSXSXSXSXSXSXSXSXSXSXSXSXSXSXSXS.&o#X+ '.XX XSXSXS",
"XSXSXSXSXSXSXSXSXSXSXSXSXSXSXSXSXSXSXSXSXSXSXSXSXSXSo-X5.^XSXSXSXSXSXSXSXSXSXSXSXSXSXSXSXSXSXSXSXSXSXS.Do#X+ jXToiXSXSXS",
"XSXSXSXSXSXSXSXSXSXSXSXSXSXSXSXSXSXSXSXSXSXSXSXSXSXS      XSXSXSXSXSXSXSXSXSXSXSXSXSXSXSXSXSXSXSXSXSXSX; =Xv jXd N.UXSXS",
"XSXSXSXSXSXSXSXSXSXSXSXSXSXSXSXSXSXSXSXSXSXSXSXSXSXS      XSXSXSXSXSXSXSXSXSXSXSXSXSXSXSXSXSXSXSXSXSXSXS.; :XJ J.q.1XSXS",
"XSXSXSXSXSXSXSXSXSXSXSXSXSXSXSXSXSXSXSXSXSXSXSXSXSXS      XSXSXSXSXSXSXSXSXSXSXSXSXSXSXSXSXSXSXSX;X;X;X;.J.{X%.5oOXpXlXS",
"XSXSXS.DXSXSXSXSXSXSXSXSXSXSXSXSXSXSXSXSXSXSXSXSXSXSX$.L _XSXSXSXSXSXSXSXSXSXSXSXSXSXSXSXSXSXSXSXSX;X;X;oy :Xm c.qX'XWXS",
"XSXSXSXSXSXSXSXSXSXSXSXSXSXSXSXSXSXSXSXSXSXSXSXSXSXSXSXSXSXSXSXSXSXSXSXSXSXSXSXSXSXSXSXSXSXSXSXSX;X;X;.D.& :Xm cXzXiXWXS",
"XSXSXS BXSXSXSXSXSXSXSXSXSXSXSXSXSXSXSXSXS , d d d d d d d pXSXSXS.# 2 C G 0X_XSo2Xa.<XSXSXSXSX;.&.& B B B Do=.XoO FXWXS",
"XSXSXSXSXSXSXSXSXSXSXSXSXSXSXSXSXSXSXSXS.I                  XSXQoq            .A    .>XSXSXSXSX; B =o#XvXv.po;X-.=X'.$ ;",
"XSXSXSXSXSXSXSXSXSXSXSXSXSXSXSXSXSXSXSXS.z                  .u                      .dXSXSXSXSX;.& =Xv.x ' [owX:os.4.F r",
"XSXSXvXSXSXSXSXSXSXSXSXSXSXSXSXSXSXSXSXSXS.2o3o3o3o3o3               (oXXFo+Xn      .dXSXSXSXSX;.& =Xv.x j.Y % NXi.4ou t",
"XSXSXvXSXSXSXSXSXSXSXSXSXSXSXSXSXSXSXSXSXSXSXSXSXSXSXS            X.XSXSXSXSXSXZ    .dXSXSXSXS.DXt.y 9XJ.Y.R b VX'.6.F ~",
"XSXSo#X;XSXSXSXSXSXSXSXSXSXSXSXSXSXSXSXSXSXSXSXSXSXSXS            XSXSXSXSXSXSXS    XfXSXSXSXS.D.;.{ qXL.R.WXq.PX3.OX> ~",
"XSXS.n.DXSXSXSXSXSXSXSXSXSXSXSXSXSXSXSXSXSXSXSXSXSXSXS            XSXSXSXSXSXSXSXSXSXSXSXSXSXSX;Xto&o8 xo Xh.(X1XY.ZXGX&",
"XSXSXU BX;XSXSXSXSXSXSXSXSXSXSXSXSXSXSXSXSXSXSXSXSXSXS            XSXSXSXSXSXSXSXSXSXSXSXSXSXSX;Xto&o8XUooXkXr o v i.c t",
"XSXSX7 =.DXSXSXSXSXSXSXSXSXSXSXSXSXSXSXSXSXSXSXSXSXSXS            XSXSXSXSXSXSXSX; 3.D.D.D.D.DoyX` 1 !.X.qXx >.E.$X,X#XV",
"XSXS.MXv.&X;XSXSXSXSXSXSXSXSXSXSXSXSXSXSXSXSXSXSXSXSXS            X~XDXSXSXSXS.a.G  Xw = = = =.].|Xgo:or *.t.1X8X>o6o9XV",
"XSXSXN.x.&X;X;XSXSXSXSXSXSXSXSXSXSXSXSXSXSXSXSXSXSXSXS      .V        XP SXMoa      Xj =XvXvXvXbXN ^XA a A <.6oto4XBX*.f",
"XSXS 7 Xo#.DX;X;XSXSXSXSXSXSXSXSXSXSXSXSXSXSXSXSXSXSXD      XSo7                  o1 Po#XvX+.x [ |XE.%.:X' K.~opo9 /o>.h",
"XSXSXS 4 ' B.DX;X;XSXSXSXSXSXSXSXSXSXSXSXSXSXSXSXSXS.o      XSXS._o7          o$X) Z :o&X@.v [XU.+.H.:.UX|.QX0 g ro>o>.h",
"XSXSXS 6X[o# BX;XSXSXSXSXSXSXSXSXSXSXSXSXSXSXSXSXSXS.l      XSXSXSX;X;X;X;X;X;X;X^ :.p qo8XLX2 c.S fX1 z v nX!XH ro>o>X]",
"XSXSXS.qXd 'X+.&X;XSXSXSXSXSXSXSXSXSXSXSXSXSXSXSXSXS.-      XSXSXSXSX;X;X;X;X;.DX^o& q }X4.W.7X9.= .XI...$ouX,.bXV.h.hX]",
"XSXSXS.s./X} jXv BX;XSXSXSXSXSXSXSXSXSXS u                .@XSXSXSX;X;X;X;.D.D.&Xt.pX%o0 c.9Xz *Xi.T votX,XH w ~o>.h.hXS",
"XSXSXS.e.`ooX} jX+ =.&X;X;X;X;X;X;XSXSXSoe              .0X;X;X;.D.&.&.&X^X^Xt ZX` 1o; y.+Xqo@.[X{.Q.$op ]o6X&XV.h.h.hXS",
"XSXSXSXSX'oO.7X} X.xo# B.&.D.D.D.DX;X;XS @            .).&.&.&.& =.].y E E E 9X@o= P 7.kX:X( > H $XWou ]o9X& r /.h.hX]XS",
"XSXSXSXSX6Xi.(oo L.3 j.xXvo# B B B.&.&.D.DX;X;X;.D.D.& B = = = =.y EX@ [ [ l l }XTorX: ) h.U.4.Qot s ] r t t to>.h.h. XS",
"XSXSXSXS. .E.,oO U.7XdX[ X '.xXv = B B.&.&.DX;X;.D.&.& B =o#XvXv 9o5 [ OX}.5 5 IXz *XyX'.T $.O.F g.bX*o>.h.h.h.h.h.hXSXS",
"XSXSXSXSXSou.Q Ao@oO.9XhXXX} l [X@Xb 9 E.y.y.]Xt.; Z Z :o&XbXbX@X% eXU c %Xk U Y.tXi.1 +XR.Z.FX> ]X&XV.h.h.h.h.h.hXSXSXS",
"XSXSXSXSXS.' s.E Fo%.w./.! I 5.5X2XLXL [ [.vX@XbXb Wo*XmX%X%.n } |.B.CorXq.(o@o% F.4 $X8X!.Kop `o6XBo>.h.h.h.h.h.hXSXSXS",
"XSXSXSXSXSXSX*X> vX|Xp.i.`.w.q U 6 I.7Xho .5.5.R x #X4 cX7X7.! b m.%.=.:.P.,Xp.4 $XW.F s ].bo9 r ~XV.h.h.h.h.h.hXSXSXSXS",
"XSXSXSXSXSXSXSX*X,X0.Q +XpXio%XcXxXOo<.j.jo,o,.g.go,Xo 8XOXO Y.w.t.[.}XpXsX|X6.Oot.K gXK rXB ~XV /XC.h.h.h.h.h.hXSXSXSXS",
"XSXSXSXSXSXSXS.hX*X,ouXW.QX|X{Xp.}.io% R RXcXc T To@o@.t -o%.[ > <X{X|X6X8 n.$X!X> `X# Q ~ t tX=o>.h.h.h.h.h.hXSXSXSXSXS",
"XSXSXSXSXSXSXSXS.hXV { gX>.$.OX8.Q.6 +.4Xs H H HXp.1 HXs.4X|X|.6.Q.~.$.FX> so4.co6o9 rXV / /o>o>.h.h.h.h.h.hXSXSXSXSXSXS",
"XSXSXSXSXSXSXSXSXS.hXV r.bX,ou.F.$ nX8 & &.Q.Qo.o..Q.8 &X8.~ nX0X!X/op g ].b.m rX*XV /.h.h.h.h.h.h.h.h.h.hX]XSXSXSXSXSXS",
"XSXSXSXSXSXSXSXSXSXS.h /XVXB { ] gop souou.*XeX! M MX!.*ou.K.Kopop g ] {.mX* ~ tXVo>.h.h.h.h.h.h.h.h.h.h. XSXSXSXSXSXSXS",
"XSXSXSXSXSXSXSXSXSXS. .h.hXC / tX* rX&o9.bXK ] ]X<X< ] kXK.bo9X&X&X&.m r t / / / /o>.h.h.h.h.h.h.h.h.hX]XSXSXSXSXSXSXSXS",
"XSXSXSXSXSXSXSXSXSXSXSXS.h.h.h.h.h.ho> /XVXVXV t t.N tX=X= /XCXCXCXCXCXCXC.h.h.h.h.h.h.h.h.h.h.h.h.h. XSXSXSXSXSXSXSXSXS",
"XSXSXSXSXSXSXSXSXSXSXSXSXS.h.h.h.h.h.hXCo> / / /X=X=X=X= /XCXC.h.h.h.h.h.h.h.h.h.h.h.h.h.h.h.h.h.hXSXSXSXSXSXSXSXSXSXSXS",
"XSXSXSXSXSXSXSXSXSXSXSXSXSXS.h.h.h.h.h.h.hXCXCo>o>o>o>o>o>o>o>.h.h.h.h.h.h.h.h.h.h.h.h.h.h.h.h.hXSXSXSXSXSXSXSXSXSXSXSXS",
"XSXSXSXSXSXSXSXSXSXSXSXSXSXSXSXS.h.h.h.h.h.h.h.h.h.h.h.h.h.h.h.h.h.h.h.h.h.h.h.h.h.h.h.h.h.hXSXSXSXSXSXSXSXSXSXSXSXSXSXS",
"XSXSXSXSXSXSXSXSXSXSXSXSXSXSXSXSXSXS.h.h.h.h.h.h.h.h.h.h.h.h.h.h.h.h.h.h.h.h.h.h.h.h.h.hX]XSXSXSXSXSXSXSXSXSXSXSXSXSXSXS",
"XSXSXSXSXSXSXSXSXSXSXSXSXSXSXSXSXSXSXS. .h.h.h.h.h.h.h.h.h.h.h.h.h.h.h.h.h.h.h.h.h.h.rXSXSXSXSXSXSXSXSXSXSXSXSXSXSXSXSXS",
"XSXSXSXSXSXSXSXSXSXSXSXSXSXSXSXSXSXSXSXSXSXSX].h.h.h.h.h.h.h.h.h.h.h.h.h.h.h.hX]X]XSXSXSXSXSXSXSXSXSXSXSXSXSXSXSXSXSXSXS",
"XSXSXSXSXSXSXSXSXSXSXSXSXSXSXSXSXSXSXSXSXSXSXSXSXSXSX]X].h.h.h.h.h.hX]X]XSXSXSXSXSXSXSXSXSXSXSXSXSXSXSXSXSXSXSXSXSXSXSXS"
};
